<?xml version="1.0" encoding="UTF-8" standalone="no"?>
<!-- Created with Inkscape (http://www.inkscape.org/) -->

<svg
   version="1.1"
   id="svg1"
   width="1333.3333"
   height="1333.3333"
   viewBox="0 0 1333.3333 1333.3333"
   sodipodi:docname="Sail High Software Solutions-01.eps"
   xmlns:inkscape="http://www.inkscape.org/namespaces/inkscape"
   xmlns:sodipodi="http://sodipodi.sourceforge.net/DTD/sodipodi-0.dtd"
   xmlns="http://www.w3.org/2000/svg"
   xmlns:svg="http://www.w3.org/2000/svg">
  <defs
     id="defs1">
    <linearGradient
       x1="0"
       y1="0"
       x2="1"
       y2="0"
       gradientUnits="userSpaceOnUse"
       gradientTransform="matrix(0,-638.305,-638.305,0,2824.86,4506.85)"
       spreadMethod="pad"
       id="linearGradient3">
      <stop
         style="stop-opacity:1;stop-color:#94dbce"
         offset="0"
         id="stop2" />
      <stop
         style="stop-opacity:1;stop-color:#4352ac"
         offset="1"
         id="stop3" />
    </linearGradient>
    <clipPath
       clipPathUnits="userSpaceOnUse"
       id="clipPath3">
      <path
         d="m 2508,3895.69 v 81.38 h 478.82 c 45.89,0 68.85,16.93 68.85,50.85 v 69.63 c 0,33.9 -22.96,50.86 -68.85,50.86 h -323.91 c -31.3,0 -57.9,3.25 -79.81,9.77 -21.89,6.53 -39.77,15.65 -53.58,27.4 -13.83,11.72 -23.87,25.68 -30.13,41.85 -6.26,16.16 -9.39,34.15 -9.39,53.98 v 32.08 c 0,19.81 3.13,37.81 9.39,53.99 6.26,16.16 16.3,30.11 30.13,41.86 13.81,11.72 31.69,20.85 53.58,27.37 21.91,6.52 48.51,9.78 79.81,9.78 h 466.29 v -81.36 h -466.29 c -45.91,0 -68.85,-16.96 -68.85,-50.86 v -33.64 c 0,-33.91 22.94,-50.85 68.85,-50.85 h 323.91 c 31.3,0 57.9,-3.27 79.81,-9.79 21.9,-6.52 39.76,-15.63 53.58,-27.38 13.82,-11.73 23.87,-25.7 30.13,-41.86 6.26,-16.17 9.39,-34.16 9.39,-53.98 v -68.08 c 0,-19.81 -3.13,-37.81 -9.39,-53.97 -6.26,-16.18 -16.31,-30.12 -30.13,-41.86 -13.82,-11.73 -31.68,-20.87 -53.58,-27.38 -21.91,-6.53 -48.51,-9.79 -79.81,-9.79 z"
         transform="translate(0,-2.5000001e-4)"
         id="path3" />
    </clipPath>
    <linearGradient
       x1="0"
       y1="0"
       x2="1"
       y2="0"
       gradientUnits="userSpaceOnUse"
       gradientTransform="matrix(0,-638.305,-638.305,0,3569.69,4506.85)"
       spreadMethod="pad"
       id="linearGradient5">
      <stop
         style="stop-opacity:1;stop-color:#94dbce"
         offset="0"
         id="stop4" />
      <stop
         style="stop-opacity:1;stop-color:#4352ac"
         offset="1"
         id="stop5" />
    </linearGradient>
    <clipPath
       clipPathUnits="userSpaceOnUse"
       id="clipPath5">
      <path
         d="m 3855.25,3895.69 -284,443.62 -288.69,-443.62 h -115.8 l 366.16,550.8 h 75.89 l 363.81,-550.8 z"
         transform="translate(0,-2.5000001e-4)"
         id="path5" />
    </clipPath>
    <linearGradient
       x1="0"
       y1="0"
       x2="1"
       y2="0"
       gradientUnits="userSpaceOnUse"
       gradientTransform="matrix(0,-638.305,-638.305,0,3982.26,4506.85)"
       spreadMethod="pad"
       id="linearGradient7">
      <stop
         style="stop-opacity:1;stop-color:#94dbce"
         offset="0"
         id="stop6" />
      <stop
         style="stop-opacity:1;stop-color:#4352ac"
         offset="1"
         id="stop7" />
    </linearGradient>
    <clipPath
       clipPathUnits="userSpaceOnUse"
       id="clipPath7">
      <path
         d="m 4175.21,3895.69 -281.85,422.08 h -104.05 l 281.84,-422.08 z"
         transform="translate(0,-2.5000001e-4)"
         id="path7" />
    </clipPath>
    <linearGradient
       x1="0"
       y1="0"
       x2="1"
       y2="0"
       gradientUnits="userSpaceOnUse"
       gradientTransform="matrix(0,-107.724,-107.724,0,3268.12,3604.1)"
       spreadMethod="pad"
       id="linearGradient14">
      <stop
         style="stop-opacity:1;stop-color:#94dbce"
         offset="0"
         id="stop13" />
      <stop
         style="stop-opacity:1;stop-color:#4352ac"
         offset="1"
         id="stop14" />
    </linearGradient>
    <clipPath
       clipPathUnits="userSpaceOnUse"
       id="clipPath14">
      <path
         d="m 3325.19,3578.12 h -108.9 v -42.94 h 96.96 c 13.69,0 23.05,-2.52 28.09,-7.56 5.05,-5.05 7.57,-14.61 7.57,-28.68 v -17.32 c 0,-14.18 -2.47,-23.79 -7.41,-28.83 -4.96,-5.05 -14.38,-7.58 -28.25,-7.58 h -89.81 c -13.98,0 -23.5,2.56 -28.54,7.65 -5.05,5.1 -7.57,14.68 -7.57,28.76 v 4.22 l 23.88,5.53 v -24.76 h 114.56 v 46.31 h -96.66 c -13.97,0 -23.44,2.53 -28.38,7.64 -4.96,5.08 -7.43,14.67 -7.43,28.74 v 13.41 c 0,14.06 2.47,23.65 7.43,28.74 4.94,5.1 14.41,7.63 28.38,7.63 h 81.96 c 13.68,0 23.11,-2.49 28.31,-7.49 5.2,-5 7.78,-13.76 7.78,-26.27 v -3.21 l -21.97,-6.26 z"
         transform="translate(0,-2.5000001e-4)"
         id="path14" />
    </clipPath>
    <linearGradient
       x1="0"
       y1="0"
       x2="1"
       y2="0"
       gradientUnits="userSpaceOnUse"
       gradientTransform="matrix(0,-107.724,-107.724,0,3513.77,3604.1)"
       spreadMethod="pad"
       id="linearGradient16">
      <stop
         style="stop-opacity:1;stop-color:#94dbce"
         offset="0"
         id="stop15" />
      <stop
         style="stop-opacity:1;stop-color:#4352ac"
         offset="1"
         id="stop16" />
    </linearGradient>
    <clipPath
       clipPathUnits="userSpaceOnUse"
       id="clipPath16">
      <path
         d="m 3450.23,3466.61 h 127.37 v 111.51 h -127.37 z m -25.63,96.1 c 0,13.96 2.5,23.52 7.5,28.67 4.99,5.14 14.55,7.7 28.61,7.7 h 106.41 c 13.88,0 23.32,-2.53 28.31,-7.63 5,-5.09 7.5,-14.68 7.5,-28.74 v -81.09 c 0,-14.18 -2.5,-23.79 -7.5,-28.83 -4.99,-5.05 -14.43,-7.58 -28.31,-7.58 h -106.41 c -14.06,0 -23.62,2.57 -28.61,7.73 -5,5.14 -7.5,14.7 -7.5,28.68 z"
         transform="translate(0,-2.5000001e-4)"
         id="path16" />
    </clipPath>
    <linearGradient
       x1="0"
       y1="0"
       x2="1"
       y2="0"
       gradientUnits="userSpaceOnUse"
       gradientTransform="matrix(0,-107.724,-107.724,0,3754.19,3604.1)"
       spreadMethod="pad"
       id="linearGradient18">
      <stop
         style="stop-opacity:1;stop-color:#94dbce"
         offset="0"
         id="stop17" />
      <stop
         style="stop-opacity:1;stop-color:#4352ac"
         offset="1"
         id="stop18" />
    </linearGradient>
    <clipPath
       clipPathUnits="userSpaceOnUse"
       id="clipPath18">
      <path
         d="m 3680.96,3445.21 v 153.87 h 146.45 v -20.96 h -120.67 v -50.36 h 68.85 v -20.52 h -68.85 v -62.03 z"
         transform="translate(0,-2.5000001e-4)"
         id="path18" />
    </clipPath>
    <linearGradient
       x1="0"
       y1="0"
       x2="1"
       y2="0"
       gradientUnits="userSpaceOnUse"
       gradientTransform="matrix(0,-107.724,-107.724,0,3934.56,3604.1)"
       spreadMethod="pad"
       id="linearGradient20">
      <stop
         style="stop-opacity:1;stop-color:#94dbce"
         offset="0"
         id="stop19" />
      <stop
         style="stop-opacity:1;stop-color:#4352ac"
         offset="1"
         id="stop20" />
    </linearGradient>
    <clipPath
       clipPathUnits="userSpaceOnUse"
       id="clipPath20">
      <path
         d="m 3947.22,3578.12 v -132.91 h -25.61 v 132.91 h -70.32 v 20.96 h 166.53 v -20.96 z"
         transform="translate(0,-2.5000001e-4)"
         id="path20" />
    </clipPath>
    <linearGradient
       x1="0"
       y1="0"
       x2="1"
       y2="0"
       gradientUnits="userSpaceOnUse"
       gradientTransform="matrix(0,-107.724,-107.724,0,4149.57,3604.1)"
       spreadMethod="pad"
       id="linearGradient22">
      <stop
         style="stop-opacity:1;stop-color:#94dbce"
         offset="0"
         id="stop21" />
      <stop
         style="stop-opacity:1;stop-color:#4352ac"
         offset="1"
         id="stop22" />
    </linearGradient>
    <clipPath
       clipPathUnits="userSpaceOnUse"
       id="clipPath22">
      <path
         d="m 4086.55,3445.21 -55.76,153.87 h 25.9 l 41.64,-122.27 45.42,122.27 h 15.73 l 43.81,-122.27 42.07,122.27 h 22.99 l -55.75,-153.87 h -19.06 l -42.65,116.32 -44.12,-116.32 z"
         transform="translate(0,-2.5000001e-4)"
         id="path22" />
    </clipPath>
    <linearGradient
       x1="0"
       y1="0"
       x2="1"
       y2="0"
       gradientUnits="userSpaceOnUse"
       gradientTransform="matrix(0,-107.724,-107.724,0,4377.03,3604.1)"
       spreadMethod="pad"
       id="linearGradient24">
      <stop
         style="stop-opacity:1;stop-color:#94dbce"
         offset="0"
         id="stop23" />
      <stop
         style="stop-opacity:1;stop-color:#4352ac"
         offset="1"
         id="stop24" />
    </linearGradient>
    <clipPath
       clipPathUnits="userSpaceOnUse"
       id="clipPath24">
      <path
         d="m 4334.3,3502.72 h 82.83 l -41.48,78.75 z m -55.75,-57.51 83.99,153.87 h 27.52 l 85.45,-153.87 h -28.25 l -19.64,37.86 h -104.1 l -19.64,-37.86 z"
         transform="translate(0,-2.5000001e-4)"
         id="path24" />
    </clipPath>
    <linearGradient
       x1="0"
       y1="0"
       x2="1"
       y2="0"
       gradientUnits="userSpaceOnUse"
       gradientTransform="matrix(0,-107.724,-107.724,0,4611.18,3604.1)"
       spreadMethod="pad"
       id="linearGradient26">
      <stop
         style="stop-opacity:1;stop-color:#94dbce"
         offset="0"
         id="stop25" />
      <stop
         style="stop-opacity:1;stop-color:#4352ac"
         offset="1"
         id="stop26" />
    </linearGradient>
    <clipPath
       clipPathUnits="userSpaceOnUse"
       id="clipPath26">
      <path
         d="m 4639.28,3579.15 h -88.21 v -54 h 88.21 c 6.4,0 10.77,1.15 13.11,3.48 2.33,2.33 3.48,6.4 3.48,12.23 v 22.42 c 0,5.82 -1.18,9.92 -3.56,12.3 -2.38,2.38 -6.72,3.57 -13.03,3.57 z m -113.99,-133.94 v 153.87 h 124.03 c 11.55,0 19.87,-2.35 24.98,-7.06 5.08,-4.71 7.63,-12.29 7.63,-22.77 v -34.36 c 0,-10.38 -2.55,-17.93 -7.63,-22.63 -5.11,-4.71 -13.43,-7.06 -24.98,-7.06 h -22.56 l 70.31,-59.99 h -38.13 l -62.6,59.99 h -45.27 v -59.99 z"
         transform="translate(0,-2.5000001e-4)"
         id="path26" />
    </clipPath>
    <linearGradient
       x1="0"
       y1="0"
       x2="1"
       y2="0"
       gradientUnits="userSpaceOnUse"
       gradientTransform="matrix(0,-107.724,-107.724,0,4827.22,3604.1)"
       spreadMethod="pad"
       id="linearGradient28">
      <stop
         style="stop-opacity:1;stop-color:#94dbce"
         offset="0"
         id="stop27" />
      <stop
         style="stop-opacity:1;stop-color:#4352ac"
         offset="1"
         id="stop28" />
    </linearGradient>
    <clipPath
       clipPathUnits="userSpaceOnUse"
       id="clipPath28">
      <path
         d="m 4752.54,3445.21 v 153.87 h 148.2 v -20.66 h -122.43 v -42.8 h 74.82 v -20.38 h -74.82 v -48.91 h 123.58 v -21.12 z"
         transform="translate(0,-2.5000001e-4)"
         id="path28" />
    </clipPath>
    <linearGradient
       x1="0"
       y1="0"
       x2="1"
       y2="0"
       gradientUnits="userSpaceOnUse"
       gradientTransform="matrix(0,-107.724,-107.724,0,5148.78,3604.1)"
       spreadMethod="pad"
       id="linearGradient30">
      <stop
         style="stop-opacity:1;stop-color:#94dbce"
         offset="0"
         id="stop29" />
      <stop
         style="stop-opacity:1;stop-color:#4352ac"
         offset="1"
         id="stop30" />
    </linearGradient>
    <clipPath
       clipPathUnits="userSpaceOnUse"
       id="clipPath30">
      <path
         d="m 5205.86,3578.12 h -108.9 v -42.94 h 96.96 c 13.69,0 23.04,-2.52 28.08,-7.56 5.05,-5.05 7.58,-14.61 7.58,-28.68 v -17.32 c 0,-14.18 -2.47,-23.79 -7.42,-28.83 -4.95,-5.05 -14.37,-7.58 -28.24,-7.58 h -89.82 c -13.97,0 -23.49,2.56 -28.53,7.65 -5.05,5.1 -7.58,14.68 -7.58,28.76 v 4.22 l 23.89,5.53 v -24.76 h 114.56 v 46.31 h -96.67 c -13.97,0 -23.43,2.53 -28.38,7.64 -4.95,5.08 -7.43,14.67 -7.43,28.74 v 13.41 c 0,14.06 2.48,23.65 7.43,28.74 4.95,5.1 14.41,7.63 28.38,7.63 h 81.96 c 13.68,0 23.12,-2.49 28.32,-7.49 5.18,-5 7.78,-13.76 7.78,-26.27 v -3.21 l -21.97,-6.26 z"
         transform="translate(0,-2.5000001e-4)"
         id="path30" />
    </clipPath>
    <linearGradient
       x1="0"
       y1="0"
       x2="1"
       y2="0"
       gradientUnits="userSpaceOnUse"
       gradientTransform="matrix(0,-107.724,-107.724,0,5394.43,3604.1)"
       spreadMethod="pad"
       id="linearGradient32">
      <stop
         style="stop-opacity:1;stop-color:#94dbce"
         offset="0"
         id="stop31" />
      <stop
         style="stop-opacity:1;stop-color:#4352ac"
         offset="1"
         id="stop32" />
    </linearGradient>
    <clipPath
       clipPathUnits="userSpaceOnUse"
       id="clipPath32">
      <path
         d="m 5330.9,3466.61 h 127.37 v 111.51 H 5330.9 Z m -25.63,96.1 c 0,13.96 2.49,23.52 7.49,28.67 5,5.14 14.54,7.7 28.62,7.7 h 106.4 c 13.88,0 23.32,-2.53 28.32,-7.63 4.99,-5.09 7.49,-14.68 7.49,-28.74 v -81.09 c 0,-14.18 -2.5,-23.79 -7.49,-28.83 -5,-5.05 -14.44,-7.58 -28.32,-7.58 h -106.4 c -14.08,0 -23.62,2.57 -28.62,7.73 -5,5.14 -7.49,14.7 -7.49,28.68 z"
         transform="translate(0,-2.5000001e-4)"
         id="path32" />
    </clipPath>
    <linearGradient
       x1="0"
       y1="0"
       x2="1"
       y2="0"
       gradientUnits="userSpaceOnUse"
       gradientTransform="matrix(0,-107.724,-107.724,0,5632.74,3604.1)"
       spreadMethod="pad"
       id="linearGradient34">
      <stop
         style="stop-opacity:1;stop-color:#94dbce"
         offset="0"
         id="stop33" />
      <stop
         style="stop-opacity:1;stop-color:#4352ac"
         offset="1"
         id="stop34" />
    </linearGradient>
    <clipPath
       clipPathUnits="userSpaceOnUse"
       id="clipPath34">
      <path
         d="m 5561.63,3445.21 v 153.87 h 25.77 v -132.47 h 116.46 v -21.4 z"
         transform="translate(0,-2.5000001e-4)"
         id="path34" />
    </clipPath>
    <linearGradient
       x1="0"
       y1="0"
       x2="1"
       y2="0"
       gradientUnits="userSpaceOnUse"
       gradientTransform="matrix(0,-107.724,-107.724,0,5823.01,3604.1)"
       spreadMethod="pad"
       id="linearGradient36">
      <stop
         style="stop-opacity:1;stop-color:#94dbce"
         offset="0"
         id="stop35" />
      <stop
         style="stop-opacity:1;stop-color:#4352ac"
         offset="1"
         id="stop36" />
    </linearGradient>
    <clipPath
       clipPathUnits="userSpaceOnUse"
       id="clipPath36">
      <path
         d="m 5767.19,3599.08 v -132.47 h 112.09 v 132.47 h 25.32 v -117.46 c 0,-14.18 -2.49,-23.79 -7.49,-28.83 -5,-5.05 -14.44,-7.58 -28.31,-7.58 h -91.28 c -13.98,0 -23.49,2.57 -28.54,7.73 -5.04,5.14 -7.56,14.7 -7.56,28.68 v 117.46 z"
         transform="translate(0,-2.5000001e-4)"
         id="path36" />
    </clipPath>
    <linearGradient
       x1="0"
       y1="0"
       x2="1"
       y2="0"
       gradientUnits="userSpaceOnUse"
       gradientTransform="matrix(0,-107.724,-107.724,0,6031.7,3604.1)"
       spreadMethod="pad"
       id="linearGradient38">
      <stop
         style="stop-opacity:1;stop-color:#94dbce"
         offset="0"
         id="stop37" />
      <stop
         style="stop-opacity:1;stop-color:#4352ac"
         offset="1"
         id="stop38" />
    </linearGradient>
    <clipPath
       clipPathUnits="userSpaceOnUse"
       id="clipPath38">
      <path
         d="m 6044.37,3578.12 v -132.91 h -25.63 v 132.91 h -70.31 v 20.96 h 166.53 v -20.96 z"
         transform="translate(0,-2.5000001e-4)"
         id="path38" />
    </clipPath>
    <linearGradient
       x1="0"
       y1="0"
       x2="1"
       y2="0"
       gradientUnits="userSpaceOnUse"
       gradientTransform="matrix(0,-107.724,-107.724,0,6171.07,3604.1)"
       spreadMethod="pad"
       id="linearGradient40">
      <stop
         style="stop-opacity:1;stop-color:#94dbce"
         offset="0"
         id="stop39" />
      <stop
         style="stop-opacity:1;stop-color:#4352ac"
         offset="1"
         id="stop40" />
    </linearGradient>
    <clipPath
       clipPathUnits="userSpaceOnUse"
       id="clipPath40">
      <path
         d="m 6158.18,3445.21 v 153.87 h 25.78 v -153.87 z"
         transform="translate(0,-2.5000001e-4)"
         id="path40" />
    </clipPath>
    <linearGradient
       x1="0"
       y1="0"
       x2="1"
       y2="0"
       gradientUnits="userSpaceOnUse"
       gradientTransform="matrix(0,-107.724,-107.724,0,6350.85,3604.1)"
       spreadMethod="pad"
       id="linearGradient42">
      <stop
         style="stop-opacity:1;stop-color:#94dbce"
         offset="0"
         id="stop41" />
      <stop
         style="stop-opacity:1;stop-color:#4352ac"
         offset="1"
         id="stop42" />
    </linearGradient>
    <clipPath
       clipPathUnits="userSpaceOnUse"
       id="clipPath42">
      <path
         d="m 6287.31,3466.61 h 127.38 v 111.51 h -127.38 z m -25.62,96.1 c 0,13.96 2.5,23.52 7.5,28.67 4.99,5.14 14.54,7.7 28.61,7.7 h 106.41 c 13.88,0 23.31,-2.53 28.31,-7.63 5,-5.09 7.5,-14.68 7.5,-28.74 v -81.09 c 0,-14.18 -2.5,-23.79 -7.5,-28.83 -5,-5.05 -14.43,-7.58 -28.31,-7.58 H 6297.8 c -14.07,0 -23.62,2.57 -28.61,7.73 -5,5.14 -7.5,14.7 -7.5,28.68 z"
         transform="translate(0,-2.5000001e-4)"
         id="path42" />
    </clipPath>
    <linearGradient
       x1="0"
       y1="0"
       x2="1"
       y2="0"
       gradientUnits="userSpaceOnUse"
       gradientTransform="matrix(0,-107.724,-107.724,0,6603.06,3604.1)"
       spreadMethod="pad"
       id="linearGradient44">
      <stop
         style="stop-opacity:1;stop-color:#94dbce"
         offset="0"
         id="stop43" />
      <stop
         style="stop-opacity:1;stop-color:#4352ac"
         offset="1"
         id="stop44" />
    </linearGradient>
    <clipPath
       clipPathUnits="userSpaceOnUse"
       id="clipPath44">
      <path
         d="m 6518.05,3445.21 v 153.87 h 16.16 l 115.16,-102.91 c 2.61,-2.33 5.4,-5.14 8.35,-8.44 2.96,-3.3 6,-6.94 9.11,-10.92 -0.78,4.96 -1.36,10.12 -1.75,15.49 -0.38,5.41 -0.58,12.85 -0.58,22.37 v 84.41 h 23.58 v -153.87 h -14.42 l -118.2,107.01 c -0.58,0.49 -1.45,1.25 -2.62,2.33 -5.82,5.24 -10.13,10.23 -12.95,14.99 0.58,-4.66 1.01,-9.64 1.3,-14.93 0.3,-5.28 0.45,-11.51 0.45,-18.69 v -90.71 z"
         transform="translate(0,-2.5000001e-4)"
         id="path44" />
    </clipPath>
    <linearGradient
       x1="0"
       y1="0"
       x2="1"
       y2="0"
       gradientUnits="userSpaceOnUse"
       gradientTransform="matrix(0,-107.724,-107.724,0,6842.1,3604.1)"
       spreadMethod="pad"
       id="linearGradient46">
      <stop
         style="stop-opacity:1;stop-color:#94dbce"
         offset="0"
         id="stop45" />
      <stop
         style="stop-opacity:1;stop-color:#4352ac"
         offset="1"
         id="stop46" />
    </linearGradient>
    <clipPath
       clipPathUnits="userSpaceOnUse"
       id="clipPath46">
      <path
         d="m 6899.17,3578.12 h -108.9 v -42.94 h 96.97 c 13.68,0 23.04,-2.52 28.08,-7.56 5.05,-5.05 7.57,-14.61 7.57,-28.68 v -17.32 c 0,-14.18 -2.47,-23.79 -7.41,-28.83 -4.96,-5.05 -14.38,-7.58 -28.24,-7.58 h -89.82 c -13.98,0 -23.5,2.56 -28.53,7.65 -5.05,5.1 -7.58,14.68 -7.58,28.76 v 4.22 l 23.88,5.53 v -24.76 h 114.56 v 46.31 h -96.66 c -13.97,0 -23.44,2.53 -28.38,7.64 -4.96,5.08 -7.43,14.67 -7.43,28.74 v 13.41 c 0,14.06 2.47,23.65 7.43,28.74 4.94,5.1 14.41,7.63 28.38,7.63 h 81.96 c 13.67,0 23.11,-2.49 28.31,-7.49 5.19,-5 7.78,-13.76 7.78,-26.27 v -3.21 l -21.97,-6.26 z"
         transform="translate(0,-2.5000001e-4)"
         id="path46" />
    </clipPath>
    <linearGradient
       x1="0"
       y1="0"
       x2="1"
       y2="0"
       gradientUnits="userSpaceOnUse"
       gradientTransform="matrix(0,-653.217,-653.217,0,6076.24,5781.03)"
       spreadMethod="pad"
       id="linearGradient51">
      <stop
         style="stop-opacity:1;stop-color:#94dbce"
         offset="0"
         id="stop50" />
      <stop
         style="stop-opacity:1;stop-color:#4352ac"
         offset="1"
         id="stop51" />
    </linearGradient>
    <clipPath
       clipPathUnits="userSpaceOnUse"
       id="clipPath51">
      <path
         d="m 6285.88,5848.41 v -885.27 l -419.29,634.69 v 250.58 z"
         transform="translate(0,-2.5000001e-4)"
         id="path51" />
    </clipPath>
  </defs>
  <sodipodi:namedview
     id="namedview1"
     pagecolor="#ffffff"
     bordercolor="#000000"
     borderopacity="0.25"
     inkscape:showpageshadow="2"
     inkscape:pageopacity="0.0"
     inkscape:pagecheckerboard="0"
     inkscape:deskcolor="#d1d1d1">
    <inkscape:page
       x="0"
       y="0"
       inkscape:label="1"
       id="page1"
       width="1333.3333"
       height="1333.3333"
       margin="0"
       bleed="0" />
  </sodipodi:namedview>
  <g
     id="g1"
     inkscape:groupmode="layer"
     inkscape:label="1">
    <g
       id="group-R5">
      <path
         id="path2"
         d="m 2508,3895.69 v 81.38 h 478.82 c 45.89,0 68.85,16.93 68.85,50.85 v 69.63 c 0,33.9 -22.96,50.86 -68.85,50.86 h -323.91 c -31.3,0 -57.9,3.25 -79.81,9.77 -21.89,6.53 -39.77,15.65 -53.58,27.4 -13.83,11.72 -23.87,25.68 -30.13,41.85 -6.26,16.16 -9.39,34.15 -9.39,53.98 v 32.08 c 0,19.81 3.13,37.81 9.39,53.99 6.26,16.16 16.3,30.11 30.13,41.86 13.81,11.72 31.69,20.85 53.58,27.37 21.91,6.52 48.51,9.78 79.81,9.78 h 466.29 v -81.36 h -466.29 c -45.91,0 -68.85,-16.96 -68.85,-50.86 v -33.64 c 0,-33.91 22.94,-50.85 68.85,-50.85 h 323.91 c 31.3,0 57.9,-3.27 79.81,-9.79 21.9,-6.52 39.76,-15.63 53.58,-27.38 13.82,-11.73 23.87,-25.7 30.13,-41.86 6.26,-16.17 9.39,-34.16 9.39,-53.98 v -68.08 c 0,-19.81 -3.13,-37.81 -9.39,-53.97 -6.26,-16.18 -16.31,-30.12 -30.13,-41.86 -13.82,-11.73 -31.68,-20.87 -53.58,-27.38 -21.91,-6.53 -48.51,-9.79 -79.81,-9.79 H 2508"
         style="fill:url(#linearGradient3);fill-opacity:1;fill-rule:nonzero;stroke:none"
         transform="matrix(0.13333333,0,0,-0.13333333,0,1333.3333)"
         clip-path="url(#clipPath3)" />
      <path
         id="path4"
         d="m 3855.25,3895.69 -284,443.62 -288.69,-443.62 h -115.8 l 366.16,550.8 h 75.89 l 363.81,-550.8 h -117.37"
         style="fill:url(#linearGradient5);fill-opacity:1;fill-rule:nonzero;stroke:none"
         transform="matrix(0.13333333,0,0,-0.13333333,0,1333.3333)"
         clip-path="url(#clipPath5)" />
      <path
         id="path6"
         d="m 4175.21,3895.69 -281.85,422.08 h -104.05 l 281.84,-422.08 h 104.06"
         style="fill:url(#linearGradient7);fill-opacity:1;fill-rule:nonzero;stroke:none"
         transform="matrix(0.13333333,0,0,-0.13333333,0,1333.3333)"
         clip-path="url(#clipPath7)" />
      <path
         id="path8"
         d="m 4237.05,3895.69 v 550.8 h 104.84 v -469.42 h 446.74 v -81.38 h -551.58"
         style="fill:#264082;fill-opacity:1;fill-rule:nonzero;stroke:none"
         transform="matrix(0.13333333,0,0,-0.13333333,0,1333.3333)" />
      <path
         id="path9"
         d="m 5703.51,3895.69 v 250.36 h -450.67 v -250.36 h -104.05 v 550.8 h 104.05 v -219.06 h 450.67 v 219.06 h 104.05 v -550.8 h -104.05"
         style="fill:#264082;fill-opacity:1;fill-rule:nonzero;stroke:none"
         transform="matrix(0.13333333,0,0,-0.13333333,0,1333.3333)" />
      <path
         id="path10"
         d="m 5913.16,3895.69 v 550.8 h 104.06 v -550.8 h -104.06"
         style="fill:#264082;fill-opacity:1;fill-rule:nonzero;stroke:none"
         transform="matrix(0.13333333,0,0,-0.13333333,0,1333.3333)" />
      <path
         id="path11"
         d="m 6315.3,3895.69 c -130.93,0 -196.37,39.64 -196.37,118.94 v 312.94 c 0,79.28 65.44,118.92 196.37,118.92 h 431.09 v -81.36 H 6315.3 c -61.55,0 -92.32,-12.52 -92.32,-37.56 v -312.94 c 0,-25.04 30.77,-37.56 92.32,-37.56 h 243.31 c 61.55,0 92.33,11.99 92.33,35.99 v 183.07 H 6755 v -183.07 c 0,-78.25 -65.47,-117.37 -196.39,-117.37 H 6315.3"
         style="fill:#264082;fill-opacity:1;fill-rule:nonzero;stroke:none"
         transform="matrix(0.13333333,0,0,-0.13333333,0,1333.3333)" />
      <path
         id="path12"
         d="m 7405.95,3895.69 v 250.36 h -450.67 v -250.36 h -104.05 v 550.8 h 104.05 v -219.06 h 450.67 v 219.06 H 7510 v -550.8 h -104.05"
         style="fill:#264082;fill-opacity:1;fill-rule:nonzero;stroke:none"
         transform="matrix(0.13333333,0,0,-0.13333333,0,1333.3333)" />
      <path
         id="path13"
         d="m 3325.19,3578.12 h -108.9 v -42.94 h 96.96 c 13.69,0 23.05,-2.52 28.09,-7.56 5.05,-5.05 7.57,-14.61 7.57,-28.68 v -17.32 c 0,-14.18 -2.47,-23.79 -7.41,-28.83 -4.96,-5.05 -14.38,-7.58 -28.25,-7.58 h -89.81 c -13.98,0 -23.5,2.56 -28.54,7.65 -5.05,5.1 -7.57,14.68 -7.57,28.76 v 4.22 l 23.88,5.53 v -24.76 h 114.56 v 46.31 h -96.66 c -13.97,0 -23.44,2.53 -28.38,7.64 -4.96,5.08 -7.43,14.67 -7.43,28.74 v 13.41 c 0,14.06 2.47,23.65 7.43,28.74 4.94,5.1 14.41,7.63 28.38,7.63 h 81.96 c 13.68,0 23.11,-2.49 28.31,-7.49 5.2,-5 7.78,-13.76 7.78,-26.27 v -3.21 l -21.97,-6.26 v 22.27"
         style="fill:url(#linearGradient14);fill-opacity:1;fill-rule:nonzero;stroke:none"
         transform="matrix(0.13333333,0,0,-0.13333333,0,1333.3333)"
         clip-path="url(#clipPath14)" />
      <path
         id="path15"
         d="m 3450.23,3466.61 h 127.37 v 111.51 h -127.37 z m -25.63,96.1 c 0,13.96 2.5,23.52 7.5,28.67 4.99,5.14 14.55,7.7 28.61,7.7 h 106.41 c 13.88,0 23.32,-2.53 28.31,-7.63 5,-5.09 7.5,-14.68 7.5,-28.74 v -81.09 c 0,-14.18 -2.5,-23.79 -7.5,-28.83 -4.99,-5.05 -14.43,-7.58 -28.31,-7.58 h -106.41 c -14.06,0 -23.62,2.57 -28.61,7.73 -5,5.14 -7.5,14.7 -7.5,28.68 v 81.09"
         style="fill:url(#linearGradient16);fill-opacity:1;fill-rule:nonzero;stroke:none"
         transform="matrix(0.13333333,0,0,-0.13333333,0,1333.3333)"
         clip-path="url(#clipPath16)" />
      <path
         id="path17"
         d="m 3680.96,3445.21 v 153.87 h 146.45 v -20.96 h -120.67 v -50.36 h 68.85 v -20.52 h -68.85 v -62.03 h -25.78"
         style="fill:url(#linearGradient18);fill-opacity:1;fill-rule:nonzero;stroke:none"
         transform="matrix(0.13333333,0,0,-0.13333333,0,1333.3333)"
         clip-path="url(#clipPath18)" />
      <path
         id="path19"
         d="m 3947.22,3578.12 v -132.91 h -25.61 v 132.91 h -70.32 v 20.96 h 166.53 v -20.96 h -70.6"
         style="fill:url(#linearGradient20);fill-opacity:1;fill-rule:nonzero;stroke:none"
         transform="matrix(0.13333333,0,0,-0.13333333,0,1333.3333)"
         clip-path="url(#clipPath20)" />
      <path
         id="path21"
         d="m 4086.55,3445.21 -55.76,153.87 h 25.9 l 41.64,-122.27 45.42,122.27 h 15.73 l 43.81,-122.27 42.07,122.27 h 22.99 l -55.75,-153.87 h -19.06 l -42.65,116.32 -44.12,-116.32 h -20.22"
         style="fill:url(#linearGradient22);fill-opacity:1;fill-rule:nonzero;stroke:none"
         transform="matrix(0.13333333,0,0,-0.13333333,0,1333.3333)"
         clip-path="url(#clipPath22)" />
      <path
         id="path23"
         d="m 4334.3,3502.72 h 82.83 l -41.48,78.75 z m -55.75,-57.51 83.99,153.87 h 27.52 l 85.45,-153.87 h -28.25 l -19.64,37.86 h -104.1 l -19.64,-37.86 h -25.33"
         style="fill:url(#linearGradient24);fill-opacity:1;fill-rule:nonzero;stroke:none"
         transform="matrix(0.13333333,0,0,-0.13333333,0,1333.3333)"
         clip-path="url(#clipPath24)" />
      <path
         id="path25"
         d="m 4639.28,3579.15 h -88.21 v -54 h 88.21 c 6.4,0 10.77,1.15 13.11,3.48 2.33,2.33 3.48,6.4 3.48,12.23 v 22.42 c 0,5.82 -1.18,9.92 -3.56,12.3 -2.38,2.38 -6.72,3.57 -13.03,3.57 z m -113.99,-133.94 v 153.87 h 124.03 c 11.55,0 19.87,-2.35 24.98,-7.06 5.08,-4.71 7.63,-12.29 7.63,-22.77 v -34.36 c 0,-10.38 -2.55,-17.93 -7.63,-22.63 -5.11,-4.71 -13.43,-7.06 -24.98,-7.06 h -22.56 l 70.31,-59.99 h -38.13 l -62.6,59.99 h -45.27 v -59.99 h -25.78"
         style="fill:url(#linearGradient26);fill-opacity:1;fill-rule:nonzero;stroke:none"
         transform="matrix(0.13333333,0,0,-0.13333333,0,1333.3333)"
         clip-path="url(#clipPath26)" />
      <path
         id="path27"
         d="m 4752.54,3445.21 v 153.87 h 148.2 v -20.66 h -122.43 v -42.8 h 74.82 v -20.38 h -74.82 v -48.91 h 123.58 v -21.12 h -149.35"
         style="fill:url(#linearGradient28);fill-opacity:1;fill-rule:nonzero;stroke:none"
         transform="matrix(0.13333333,0,0,-0.13333333,0,1333.3333)"
         clip-path="url(#clipPath28)" />
      <path
         id="path29"
         d="m 5205.86,3578.12 h -108.9 v -42.94 h 96.96 c 13.69,0 23.04,-2.52 28.08,-7.56 5.05,-5.05 7.58,-14.61 7.58,-28.68 v -17.32 c 0,-14.18 -2.47,-23.79 -7.42,-28.83 -4.95,-5.05 -14.37,-7.58 -28.24,-7.58 h -89.82 c -13.97,0 -23.49,2.56 -28.53,7.65 -5.05,5.1 -7.58,14.68 -7.58,28.76 v 4.22 l 23.89,5.53 v -24.76 h 114.56 v 46.31 h -96.67 c -13.97,0 -23.43,2.53 -28.38,7.64 -4.95,5.08 -7.43,14.67 -7.43,28.74 v 13.41 c 0,14.06 2.48,23.65 7.43,28.74 4.95,5.1 14.41,7.63 28.38,7.63 h 81.96 c 13.68,0 23.12,-2.49 28.32,-7.49 5.18,-5 7.78,-13.76 7.78,-26.27 v -3.21 l -21.97,-6.26 v 22.27"
         style="fill:url(#linearGradient30);fill-opacity:1;fill-rule:nonzero;stroke:none"
         transform="matrix(0.13333333,0,0,-0.13333333,0,1333.3333)"
         clip-path="url(#clipPath30)" />
      <path
         id="path31"
         d="m 5330.9,3466.61 h 127.37 v 111.51 H 5330.9 Z m -25.63,96.1 c 0,13.96 2.49,23.52 7.49,28.67 5,5.14 14.54,7.7 28.62,7.7 h 106.4 c 13.88,0 23.32,-2.53 28.32,-7.63 4.99,-5.09 7.49,-14.68 7.49,-28.74 v -81.09 c 0,-14.18 -2.5,-23.79 -7.49,-28.83 -5,-5.05 -14.44,-7.58 -28.32,-7.58 h -106.4 c -14.08,0 -23.62,2.57 -28.62,7.73 -5,5.14 -7.49,14.7 -7.49,28.68 v 81.09"
         style="fill:url(#linearGradient32);fill-opacity:1;fill-rule:nonzero;stroke:none"
         transform="matrix(0.13333333,0,0,-0.13333333,0,1333.3333)"
         clip-path="url(#clipPath32)" />
      <path
         id="path33"
         d="m 5561.63,3445.21 v 153.87 h 25.77 v -132.47 h 116.46 v -21.4 h -142.23"
         style="fill:url(#linearGradient34);fill-opacity:1;fill-rule:nonzero;stroke:none"
         transform="matrix(0.13333333,0,0,-0.13333333,0,1333.3333)"
         clip-path="url(#clipPath34)" />
      <path
         id="path35"
         d="m 5767.19,3599.08 v -132.47 h 112.09 v 132.47 h 25.32 v -117.46 c 0,-14.18 -2.49,-23.79 -7.49,-28.83 -5,-5.05 -14.44,-7.58 -28.31,-7.58 h -91.28 c -13.98,0 -23.49,2.57 -28.54,7.73 -5.04,5.14 -7.56,14.7 -7.56,28.68 v 117.46 h 25.77"
         style="fill:url(#linearGradient36);fill-opacity:1;fill-rule:nonzero;stroke:none"
         transform="matrix(0.13333333,0,0,-0.13333333,0,1333.3333)"
         clip-path="url(#clipPath36)" />
      <path
         id="path37"
         d="m 6044.37,3578.12 v -132.91 h -25.63 v 132.91 h -70.31 v 20.96 h 166.53 v -20.96 h -70.59"
         style="fill:url(#linearGradient38);fill-opacity:1;fill-rule:nonzero;stroke:none"
         transform="matrix(0.13333333,0,0,-0.13333333,0,1333.3333)"
         clip-path="url(#clipPath38)" />
      <path
         id="path39"
         d="m 6158.18,3445.21 v 153.87 h 25.78 v -153.87 h -25.78"
         style="fill:url(#linearGradient40);fill-opacity:1;fill-rule:nonzero;stroke:none"
         transform="matrix(0.13333333,0,0,-0.13333333,0,1333.3333)"
         clip-path="url(#clipPath40)" />
      <path
         id="path41"
         d="m 6287.31,3466.61 h 127.38 v 111.51 h -127.38 z m -25.62,96.1 c 0,13.96 2.5,23.52 7.5,28.67 4.99,5.14 14.54,7.7 28.61,7.7 h 106.41 c 13.88,0 23.31,-2.53 28.31,-7.63 5,-5.09 7.5,-14.68 7.5,-28.74 v -81.09 c 0,-14.18 -2.5,-23.79 -7.5,-28.83 -5,-5.05 -14.43,-7.58 -28.31,-7.58 H 6297.8 c -14.07,0 -23.62,2.57 -28.61,7.73 -5,5.14 -7.5,14.7 -7.5,28.68 v 81.09"
         style="fill:url(#linearGradient42);fill-opacity:1;fill-rule:nonzero;stroke:none"
         transform="matrix(0.13333333,0,0,-0.13333333,0,1333.3333)"
         clip-path="url(#clipPath42)" />
      <path
         id="path43"
         d="m 6518.05,3445.21 v 153.87 h 16.16 l 115.16,-102.91 c 2.61,-2.33 5.4,-5.14 8.35,-8.44 2.96,-3.3 6,-6.94 9.11,-10.92 -0.78,4.96 -1.36,10.12 -1.75,15.49 -0.38,5.41 -0.58,12.85 -0.58,22.37 v 84.41 h 23.58 v -153.87 h -14.42 l -118.2,107.01 c -0.58,0.49 -1.45,1.25 -2.62,2.33 -5.82,5.24 -10.13,10.23 -12.95,14.99 0.58,-4.66 1.01,-9.64 1.3,-14.93 0.3,-5.28 0.45,-11.51 0.45,-18.69 v -90.71 h -23.59"
         style="fill:url(#linearGradient44);fill-opacity:1;fill-rule:nonzero;stroke:none"
         transform="matrix(0.13333333,0,0,-0.13333333,0,1333.3333)"
         clip-path="url(#clipPath44)" />
      <path
         id="path45"
         d="m 6899.17,3578.12 h -108.9 v -42.94 h 96.97 c 13.68,0 23.04,-2.52 28.08,-7.56 5.05,-5.05 7.57,-14.61 7.57,-28.68 v -17.32 c 0,-14.18 -2.47,-23.79 -7.41,-28.83 -4.96,-5.05 -14.38,-7.58 -28.24,-7.58 h -89.82 c -13.98,0 -23.5,2.56 -28.53,7.65 -5.05,5.1 -7.58,14.68 -7.58,28.76 v 4.22 l 23.88,5.53 v -24.76 h 114.56 v 46.31 h -96.66 c -13.97,0 -23.44,2.53 -28.38,7.64 -4.96,5.08 -7.43,14.67 -7.43,28.74 v 13.41 c 0,14.06 2.47,23.65 7.43,28.74 4.94,5.1 14.41,7.63 28.38,7.63 h 81.96 c 13.67,0 23.11,-2.49 28.31,-7.49 5.19,-5 7.78,-13.76 7.78,-26.27 v -3.21 l -21.97,-6.26 v 22.27"
         style="fill:url(#linearGradient46);fill-opacity:1;fill-rule:nonzero;stroke:none"
         transform="matrix(0.13333333,0,0,-0.13333333,0,1333.3333)"
         clip-path="url(#clipPath46)" />
      <path
         id="path47"
         d="M 6216.1,6271.49 H 5866.59 V 5965.9 h 349.51 v 305.59"
         style="fill:#facc1c;fill-opacity:1;fill-rule:nonzero;stroke:none"
         transform="matrix(0.13333333,0,0,-0.13333333,0,1333.3333)" />
      <path
         id="path48"
         d="M 6562.44,6313.16 H 6340.03 V 6118.7 h 222.41 v 194.46"
         style="fill:#74ca50;fill-opacity:1;fill-rule:nonzero;stroke:none"
         transform="matrix(0.13333333,0,0,-0.13333333,0,1333.3333)" />
      <path
         id="path49"
         d="m 6245.03,6554.78 h -148.08 v -129.46 h 148.08 v 129.46"
         style="fill:#bf166b;fill-opacity:1;fill-rule:nonzero;stroke:none"
         transform="matrix(0.13333333,0,0,-0.13333333,0,1333.3333)" />
      <path
         id="path50"
         d="m 6285.88,5848.41 v -885.27 l -419.29,634.69 v 250.58 h 419.29"
         style="fill:url(#linearGradient51);fill-opacity:1;fill-rule:nonzero;stroke:none"
         transform="matrix(0.13333333,0,0,-0.13333333,0,1333.3333)"
         clip-path="url(#clipPath51)" />
      <path
         id="path52"
         d="m 5477.96,6090.69 h -172.08 l -315.65,-474.66 c 48.85,-14.84 88.6,-35.41 119.65,-61.71 21.37,-18 38.77,-38.57 52.02,-61.51 l 231.01,354.81 644.17,-1006.11 h 266.21 l -825.33,1249.18"
         style="fill:#264082;fill-opacity:1;fill-rule:nonzero;stroke:none"
         transform="matrix(0.13333333,0,0,-0.13333333,0,1333.3333)" />
      <path
         id="path53"
         d="m 3681.72,4841.44 v 184.53 h 1085.96 c 104.1,0 156.16,38.42 156.16,115.33 v 157.93 c 0,76.92 -52.06,115.37 -156.16,115.37 h -734.63 c -70.97,0 -131.29,7.35 -180.98,22.18 -49.69,14.77 -90.23,35.47 -121.56,62.08 -31.36,26.64 -54.12,58.26 -68.31,94.95 -14.22,36.66 -21.32,77.46 -21.32,122.43 v 72.77 c 0,44.94 7.1,85.74 21.32,122.43 14.19,36.66 36.95,68.31 68.31,94.95 31.33,26.61 71.87,47.28 121.56,62.08 49.69,14.8 110.01,22.18 180.98,22.18 h 1057.58 l -132.34,-184.54 h -925.24 c -104.1,0 -156.14,-38.46 -156.14,-115.33 v -76.31 c 0,-76.91 52.04,-115.33 156.14,-115.33 h 734.63 c 71,0 131.31,-7.42 181.01,-22.18 49.68,-14.83 90.2,-35.5 121.55,-62.11 31.33,-26.61 54.13,-58.3 68.31,-94.95 14.19,-36.66 21.28,-77.49 21.28,-122.43 V 5143.1 c 0,-44.97 -7.09,-85.8 -21.28,-122.46 -14.18,-36.66 -36.98,-68.31 -68.31,-94.92 -31.35,-26.61 -71.87,-47.34 -121.55,-62.11 -49.7,-14.79 -110.01,-22.17 -181.01,-22.17 H 3681.72"
         style="fill:#264082;fill-opacity:1;fill-rule:nonzero;stroke:none"
         transform="matrix(0.13333333,0,0,-0.13333333,0,1333.3333)" />
      <path
         id="path54"
         d="m 3910.1,4512.98 h -175.55 v -153.5 h 175.55 v 153.5"
         style="fill:#facc1c;fill-opacity:1;fill-rule:nonzero;stroke:none"
         transform="matrix(0.13333333,0,0,-0.13333333,0,1333.3333)" />
      <path
         id="path55"
         d="m 4084.06,4533.91 h -111.71 v -97.68 h 111.71 v 97.68"
         style="fill:#74ca50;fill-opacity:1;fill-rule:nonzero;stroke:none"
         transform="matrix(0.13333333,0,0,-0.13333333,0,1333.3333)" />
      <path
         id="path56"
         d="m 3924.63,4655.27 h -74.38 v -65.03 h 74.38 v 65.03"
         style="fill:#bf166b;fill-opacity:1;fill-rule:nonzero;stroke:none"
         transform="matrix(0.13333333,0,0,-0.13333333,0,1333.3333)" />
    </g>
  </g>
</svg>
